<svg version="1.0" xmlns="http://www.w3.org/2000/svg" width="2564" height="313.333" viewBox="0 0 1923 235"><path d="M1827.5 6.6c-24.5 2.9-40 9.5-51.4 22-6.1 6.6-9.6 13.7-11.6 22.9-1.8 8.7-1.9 14.2-.1 22.6 2.7 12.7 10.2 23.2 21.9 30.8 8.7 5.7 27.2 13.1 50.5 20.1 30.1 9.1 39 13 47.2 21.2 6.3 6.3 8.5 11.7 8.4 20.8 0 9.1-2.9 15.4-9.7 21.7-10.9 10.1-29.6 14.7-49.2 12.3-11.7-1.5-20.7-4.6-29.5-10.5-11.2-7.4-19.3-19.3-22.1-32.4-.7-3.1-1.3-5.7-1.5-5.9-.1-.2-6.2 2.4-13.5 5.7-15.3 6.9-14.7 5.8-10.4 18.4 8.3 24.2 31.9 42.4 62.5 48.3 43.1 8.3 83.7-6 97.9-34.5 8.4-16.8 7.3-39.2-2.7-54.7-10.5-16.1-23.8-22.8-81.2-40.4-17-5.2-24.4-8.8-30.9-14.6-7-6.3-9.2-10.9-9.2-19 0-18.3 17.5-30.4 44.1-30.4 26.8 0 48.9 13.7 55.4 34.3l1.8 5.6 12.9-6.4c7.1-3.6 12.9-6.8 12.9-7.2 0-.4-1.9-4.6-4.2-9.3-8.5-17.2-26.3-31.1-48-37.4-12.4-3.6-29.2-5.2-40.3-4zm-1325 1.1c-38.6 6-69.9 32.8-81.8 69.8-4.6 14.3-5.2 18.9-5.2 40 .1 17.6.4 21.2 2.4 29.5 4.9 19.8 12.5 33.9 25.5 47.7 18.1 19.1 36.5 28.3 62.7 31.4 45.8 5.3 88.2-17.9 104.1-57 1.5-3.6 2.4-6.9 2-7.3-.4-.4-6.1-3.7-12.7-7.2l-11.9-6.5-2.7 7.9c-6.8 20.4-21.4 34.8-42.4 41.7-7.1 2.4-9.6 2.7-22.5 2.7-12.5.1-15.5-.2-22-2.2-26.2-8.2-44.2-27.9-51.2-56-2.9-11.5-3.2-38.8-.5-49.5 4.3-17.4 10.7-28.9 22.3-40.3 13.5-13.3 29.9-19.6 50.9-19.6 20.3 0 35.6 5.6 48.7 18.1 8.2 7.7 12.8 14.9 16.6 26.2l2.8 8.6 12.5-7c6.8-3.8 12.5-7.1 12.7-7.2.9-.8-6.6-16.4-10.9-23-9.1-14-22-24.9-38.5-32.7-13.9-6.5-21.4-8-40.9-8.3-9.3-.2-18.3-.1-20 .2zM86.1 14.2c-.5 1.3-19.4 48-42.1 103.8C21.3 173.8 2.5 220.3 2.3 221.2c-.5 1.7.7 1.8 14.5 1.8h15l9.7-24.8c5.4-13.6 10.4-26.2 11.1-28l1.3-3.2h96.7l10.9 28 11 28h15.2c14.1 0 15.2-.1 14.6-1.8-.4-.9-19.5-48.3-42.4-105.2L118.1 12.5l-15.5-.3c-15.5-.2-15.6-.2-16.5 2zM118.9 86c7.6 20.1 15.8 41.2 18 46.9 2.3 5.8 4.1 10.6 4.1 10.8 0 .2-17.5.3-38.9.3H63.2l4-10.3c2.2-5.6 10.5-27.1 18.4-47.7 8-20.6 15-38.8 15.6-40.4l1.1-2.8 1.3 3.3c.7 1.9 7.6 19.8 15.3 39.9zm107.8-73.3c-.4.3-.7 47.8-.7 105.5V223h29v-87.2l29.8.5c23.8.3 30.9.7 35.7 2.1 13.9 3.9 21.1 9.7 26.8 21.7 1.9 4.1 6 16.5 9.1 27.7 3.1 11.1 7 23.6 8.7 27.7l3.1 7.5h31.7l-3.5-7.6c-4.4-9.6-8.9-22.8-15-43-2.6-8.7-5.9-18.4-7.4-21.4-5.4-10.8-15.2-19.5-26.3-23.5l-5.9-2.2 6.4-2.2c27-9.7 42.8-33 40.4-59.8-2.6-28.4-23.8-46.2-59.9-50.2-10.4-1.2-100.9-1.5-102-.4zm102.4 26.6c17.4 4 27.6 13.8 30 28.7 2.6 16.1-4.9 30.2-19.7 37.2-10.9 5.1-16.7 5.8-52.1 5.8H255V36.8l33.8.5c25.3.4 35.3.9 40.3 2zm320.6-26.7c-.4.4-.7 47.9-.7 105.6V223h29v-93h115v93h29l-.2-105.3-.3-105.2h-28l-.3 46.2-.2 46.3H678l-.2-46.3-.3-46.2-13.6-.3c-7.4-.1-13.8.1-14.2.4zm216 0c-.4.4-.7 47.9-.7 105.6V223h29l-.2-105.3-.3-105.2-13.6-.3c-7.4-.1-13.8.1-14.2.4zM920 24.5V37l38.3.2 38.2.3.3 92.8.2 92.7h28V37h76V12H920v12.5zm207.7-11.8c-.4.3-.7 47.8-.7 105.5V223h148v-25h-119v-68h101v-25h-101V37h119V12h-73.3c-40.4 0-73.7.3-74 .7zm242.4 1.5c-.5 1.3-19.4 48-42.1 103.8-22.7 55.8-41.5 102.3-41.7 103.2-.5 1.7.7 1.8 14.5 1.8h15l9.7-24.8c5.4-13.6 10.4-26.2 11.1-28l1.3-3.2h96.7l10.9 28 11 28h15.2c14.1 0 15.2-.1 14.6-1.8-.4-.9-19.5-48.3-42.4-105.2l-41.8-103.5-15.5-.3c-15.5-.2-15.6-.2-16.5 2zm32.8 71.8c7.6 20.1 15.8 41.2 18 46.9 2.3 5.8 4.1 10.6 4.1 10.8 0 .2-17.5.3-38.9.3h-38.9l4-10.3c2.2-5.6 10.5-27.1 18.4-47.7 8-20.6 15-38.8 15.6-40.4l1.1-2.8 1.3 3.3c.7 1.9 7.6 19.8 15.3 39.9zm107.8-73.3c-.4.3-.7 47.8-.7 105.5V223h28.3l-.5-88-.5-88.1 11.6 32.3c6.4 17.8 21.3 57.4 33.1 88.1l21.5 55.7 13.9-.2 13.9-.3L1653 166c11.9-31.1 26.5-70.5 32.4-87.5 6-17.1 10.9-31.1 11-31.2 0-.1-.1 39.4-.3 87.8l-.3 87.9h28.2V12l-21.1.2-21.1.3-1.9 5c-3 8.4-50.3 139.1-56 154.8-2.9 8.1-5.5 14.7-5.8 14.7-.4 0-5.3-12.9-11-28.8-5.7-15.8-15.4-42.2-21.6-58.7-6.1-16.5-15.9-42.9-21.6-58.7L1553.5 12h-21.1c-11.6 0-21.4.3-21.7.7z" fill="#1C1C1C"/></svg>