<svg width="1124" height="346" fill="none" xmlns="http://www.w3.org/2000/svg"><path d="M61.15 291.753c20.042-56.639 44.15-108.776 49.221-169.802 2.56-30.807.804-61.402-1.779-92.117-.765-9.1-1.736-18.184-2.569-27.279-.091-.984-.155 1.99 0 2.965 6.208 39.266 19.062 77.823 31.331 115.442 16.5 50.595 15.892 45.967 31.233 88.954 1.9 5.326 7.073 17.75 1.482 16.901-19.914-3.025-41.675-15.585-60.488-22.041-14.84-5.092-32.317-10.561-47.64-14.825-5.192-1.445-10.768-5.253-15.814-3.361-4.697 1.762 7.898 6.431 12.552 8.303 22.863 9.192 49.223 11.714 73.535 13.54 48.636 3.653 96.97-1.917 138.471-29.354 18.462-12.205 10.426-31.979-11.959-30.541-20.818 1.337-36.582 20.467-42.006 39.337-7.53 26.199 8.67 41.581 32.518 48.233 40.845 11.393 91.227 5.968 124.238-22.041 8.451-7.17 18.16-16.74 22.436-27.279 5.042-12.423-9.164-12.672-17.197-9.093-14.217 6.333-55.518 57.182-23.029 64.442 20.936 4.678 48.741-2.171 68.593-7.907 27.714-8.008 53.304-21.452 65.628-49.023 9.261-20.721 11.143-44.825 12.848-67.111.685-8.94 2.441-35.209-.889-26.884-18.178 45.446-24.166 95.601-41.413 141.634-3.379 9.019-7.527 21.625-14.43 29.058-4.11 4.426-.082-2.363 1.878-3.953 42.117-34.171 103.045-40.589 140.942-80.651 11.201-11.842 18.022-26.826 21.843-42.5 1.614-6.623 1.301-16.198-8.105-10.28-19.776 12.446-47.37 61.157-30.046 83.024 7.387 9.325 23.174 11.072 34 10.674 30.224-1.109 55.257-18.011 76.697-37.953 9.638-8.965 26.582-24.014 31.727-37.163 1.785-4.56-22.643 14.967-23.523 16.012-7.109 8.431-15.763 20.652-13.936 32.616 2.91 19.054 28.052 25.176 43.488 27.279 60.239 8.207 115.466-31.581 166.146-58.116 10.508-5.502 21.909-12.555 33.11-17 4.522-1.795-4.202 8.813-6.918 12.848-17.772 26.405-34.262 54.189-54.954 78.477-28.612 33.585-63.016 55.801-104.965 69.384-23.473 7.6-53.005 16.173-78.18 15.715-19.534-.355 30.422-25.434 48.43-33.011 48.678-20.483 99.814-34.138 151.32-45.367 60.335-13.154 122.223-18.597 182.253-33.011 20.22-4.855 43.45-10.866 61.58-21.843 4.43-2.686 4.86-3.483-.1-4.646-7.9-1.851-23.44-2.404-29.36-2.668-85.8-3.828-172.015 1.469-257.664 6.029-169.447 9.02-338.236 17.613-508.024 15.616-97.831-1.151-195.474-5.252-293.151-10.477-74.473-3.984 19.527 5.701 27.872 6.919 63.553 9.275 127.228 18.597 190.163 31.529 2.695.554 116.365 17.448 96.86 44.575-14.797 20.581-47.457 29.498-67.802 42.698-51.041 33.118 42.686 27.58 54.756 27.279 97.534-2.434 194.953-14.137 292.361-19.569 38.642-2.155 77.403-3.897 116.035-5.931" stroke="#fff" stroke-opacity=".7" stroke-width="3" stroke-linecap="round"/></svg>